<svg xmlns="http://www.w3.org/2000/svg" width="66" height="44" fill="none"><path fill="#38BCEA" d="M21.687 17.788h-9.623a4.27 4.27 0 0 1-4.27-4.114v-.285c0-7.117 4.057-13.025 9.04-13.025 4.981 0 9.052 5.85 9.052 13.025v.285a4.27 4.27 0 0 1-4.199 4.114ZM16.876 2.443c-3.844 0-6.961 4.91-6.961 10.946v.256a2.135 2.135 0 0 0 2.15 2.064h9.622a2.15 2.15 0 0 0 2.164-2.064v-.256c0-6.035-3.103-10.946-6.975-10.946Z"/><path fill="#38BCEA" d="M18.513 13.588h-3.26a1.95 1.95 0 0 1-1.95-1.935v-3.26a1.964 1.964 0 0 1 1.95-1.95h3.26a1.95 1.95 0 0 1 1.936 1.95v3.26a1.936 1.936 0 0 1-1.936 1.935Zm-3.132-2.078h2.99V8.52h-2.99v2.99Z"/><path fill="#38BCEA" d="M16.876 8.52a1.04 1.04 0 0 1-1.04-1.038V6.3a1.04 1.04 0 0 1 2.079 0v1.224a1.039 1.039 0 0 1-1.04.997ZM16.876 14.343a1.04 1.04 0 0 1-1.04-1.04v-.754a1.04 1.04 0 0 1 2.079 0v.755a1.04 1.04 0 0 1-1.04 1.039ZM37.701 17.788H28.08a4.27 4.27 0 0 1-4.27-4.114v-.285c0-7.117 4.056-13.025 9.038-13.025s9.054 5.85 9.054 13.025v.299a4.27 4.27 0 0 1-4.2 4.1ZM32.89 2.443c-3.843 0-6.96 4.91-6.96 10.946v.256a2.135 2.135 0 0 0 2.149 2.064H37.7a2.15 2.15 0 0 0 2.164-2.064v-.256c0-6.035-3.132-10.946-6.975-10.946Z"/><path fill="#38BCEA" d="M34.527 13.588h-3.26a1.935 1.935 0 0 1-1.978-1.935v-3.26a1.95 1.95 0 0 1 1.935-1.95h3.26a1.95 1.95 0 0 1 1.922 1.95v3.26a1.936 1.936 0 0 1-1.879 1.935Zm-3.132-2.078h2.99V8.52h-2.99v2.99Z"/><path fill="#38BCEA" d="M32.89 8.52a1.04 1.04 0 0 1-1.04-1.038V6.3a1.04 1.04 0 0 1 2.079 0v1.224a1.04 1.04 0 0 1-1.04.997ZM32.89 14.343a1.04 1.04 0 0 1-1.04-1.04v-.754a1.04 1.04 0 0 1 2.079 0v.755a1.04 1.04 0 0 1-1.04 1.039ZM53.715 17.788h-9.622a4.27 4.27 0 0 1-4.27-4.114v-.285c0-7.117 4.056-13.025 9.038-13.025 4.983 0 9.054 5.85 9.054 13.025v.299a4.27 4.27 0 0 1-4.2 4.1Zm-4.81-15.345c-3.844 0-6.962 4.91-6.962 10.946v.256a2.135 2.135 0 0 0 2.15 2.064h9.622a2.15 2.15 0 0 0 2.164-2.064v-.256c0-6.035-3.131-10.946-6.975-10.946Z"/><path fill="#38BCEA" d="M50.54 13.588h-3.259a1.936 1.936 0 0 1-1.936-1.935v-3.26a1.95 1.95 0 0 1 1.936-1.95h3.26a1.95 1.95 0 0 1 1.936 1.95v3.26a1.936 1.936 0 0 1-1.936 1.935Zm-3.13-2.078h2.989V8.52h-2.99v2.99Z"/><path fill="#38BCEA" d="M48.904 8.52a1.04 1.04 0 0 1-1.039-1.038V6.3a1.04 1.04 0 0 1 2.078 0v1.224a1.039 1.039 0 0 1-1.039.997ZM48.904 14.343a1.04 1.04 0 0 1-1.039-1.04v-.754a1.04 1.04 0 0 1 2.078 0v.755a1.04 1.04 0 0 1-1.039 1.039Z"/><path fill="#38BCEA" d="M35.424 11.04a1.068 1.068 0 0 1-.726-.298 1.054 1.054 0 0 1-.313-.74V8.577h-2.99V10a1.11 1.11 0 0 1-.299.74 1.01 1.01 0 0 1-.754.3c-3.843 0-7.559-.214-11.018-.485a1.039 1.039 0 0 1-.954-1.039v-.996h-2.989v.498a1.025 1.025 0 0 1-1.153 1.04C.705 8.42.705 5.901.705 4.961a1.04 1.04 0 0 1 2.064 0c.242.484 2.577 1.88 10.62 2.933a1.936 1.936 0 0 1 1.864-1.424h3.26a1.95 1.95 0 0 1 1.936 1.95v.171c2.847.2 5.793.327 8.882.384v-.555a1.95 1.95 0 0 1 1.936-1.95h3.26a1.95 1.95 0 0 1 1.88 1.922v.555c3.074 0 6.063-.185 8.882-.384v-.171a1.95 1.95 0 0 1 1.935-1.95h3.26a1.95 1.95 0 0 1 1.865 1.423C60.477 6.798 62.77 5.39 62.97 4.92a1.012 1.012 0 0 1 1.426-.926 1.054 1.054 0 0 1 .637.982c0 .94 0 3.46-13.523 5.096a1.053 1.053 0 0 1-1.167-1.039v-.498h-2.99v.997a1.04 1.04 0 0 1-.953 1.039c-3.46.27-7.117.427-11.018.484l.043-.014ZM16.875 43.111c-4.982 0-9.039-5.85-9.039-13.024v-.285a4.27 4.27 0 0 1 4.27-4.114h9.624a4.27 4.27 0 0 1 4.27 4.1v.299c-.071 7.174-4.128 13.024-9.125 13.024Zm-4.81-15.345a2.135 2.135 0 0 0-2.15 2.064v.257c0 6.035 3.117 10.946 6.96 10.946 3.844 0 6.976-4.91 6.976-10.947v-.256a2.15 2.15 0 0 0-2.164-2.064h-9.623Z"/><path fill="#38BCEA" d="M18.513 37.019h-3.26a1.95 1.95 0 0 1-1.95-1.936v-3.26a1.95 1.95 0 0 1 1.95-1.936h3.26a1.936 1.936 0 0 1 1.936 1.936v3.26a1.936 1.936 0 0 1-1.936 1.936Zm-3.132-2.064h2.99v-2.99h-2.99v2.99Z"/><path fill="#38BCEA" d="M16.876 38.215a1.04 1.04 0 0 1-1.04-1.04v-1.181a1.04 1.04 0 1 1 2.065 0v1.181a1.039 1.039 0 0 1-1.025 1.04ZM16.876 31.966a1.04 1.04 0 0 1-1.04-1.04v-.754a1.04 1.04 0 0 1 2.079 0v.754a1.04 1.04 0 0 1-1.04 1.04ZM32.89 43.111c-4.983 0-9.04-5.85-9.04-13.024v-.285a4.27 4.27 0 0 1 4.271-4.114h9.623a4.27 4.27 0 0 1 4.27 4.1v.299c-.07 7.174-4.185 13.024-9.124 13.024Zm-4.812-15.345a2.135 2.135 0 0 0-2.15 2.064v.257c0 6.035 3.118 10.946 6.962 10.946 3.843 0 6.975-4.91 6.975-10.947v-.256a2.15 2.15 0 0 0-2.164-2.064h-9.623Z"/><path fill="#38BCEA" d="M34.527 37.019h-3.26a1.935 1.935 0 0 1-1.978-1.936v-3.26a1.936 1.936 0 0 1 1.935-1.936h3.26a1.936 1.936 0 0 1 1.922 1.936v3.26a1.936 1.936 0 0 1-1.879 1.936Zm-3.132-2.064h2.99v-2.99h-2.99v2.99Z"/><path fill="#38BCEA" d="M32.89 38.215a1.04 1.04 0 0 1-1.04-1.04v-1.18a1.04 1.04 0 0 1 2.079 0v1.18a1.04 1.04 0 0 1-1.04 1.04ZM32.89 31.966a1.04 1.04 0 0 1-1.04-1.04v-.754a1.04 1.04 0 0 1 2.079 0v.754a1.04 1.04 0 0 1-1.04 1.04ZM48.904 43.111c-4.982 0-9.04-5.85-9.04-13.024v-.3a4.27 4.27 0 0 1 4.271-4.099h9.623a4.27 4.27 0 0 1 4.27 4.1v.299c-.07 7.174-4.128 13.024-9.124 13.024Zm-4.812-15.345a2.135 2.135 0 0 0-2.149 2.064v.257c0 6.035 3.117 10.946 6.96 10.946 3.844 0 6.976-4.91 6.976-10.947v-.256a2.15 2.15 0 0 0-2.164-2.064h-9.623Z"/><path fill="#38BCEA" d="M50.54 37.019h-3.259a1.936 1.936 0 0 1-1.936-1.936v-3.26a1.936 1.936 0 0 1 1.936-1.936h3.26a1.936 1.936 0 0 1 1.936 1.936v3.26a1.936 1.936 0 0 1-1.936 1.936Zm-3.13-2.064h2.989v-2.99h-2.99v2.99Z"/><path fill="#38BCEA" d="M48.904 38.215a1.04 1.04 0 0 1-1.039-1.04v-1.18a1.039 1.039 0 1 1 2.078 0v1.18a1.04 1.04 0 0 1-1.039 1.04ZM48.904 31.966a1.04 1.04 0 0 1-1.039-1.04v-.754a1.039 1.039 0 1 1 2.078 0v.754a1.04 1.04 0 0 1-1.039 1.04Z"/><path fill="#38BCEA" d="M1.73 39.581a1.054 1.054 0 0 1-1.025-1.068c0-.939 0-3.459 13.523-5.096a1.026 1.026 0 0 1 1.153 1.04v.498h2.99v-.997a1.039 1.039 0 0 1 .953-1.039c3.46-.27 7.118-.427 11.018-.484a1.012 1.012 0 0 1 .755.3c.19.199.297.464.298.74v1.423h2.99v-1.424a1.04 1.04 0 0 1 .313-.74.999.999 0 0 1 .74-.299c3.858 0 7.573.214 11.018.484a1.039 1.039 0 0 1 .954 1.04v.996h2.989v-.498a1.053 1.053 0 0 1 1.167-1.04c13.523 1.637 13.523 4.157 13.523 5.096a1.04 1.04 0 0 1-2.078 0c-.185-.412-2.477-1.822-10.605-2.846a1.936 1.936 0 0 1-1.865 1.423h-3.26a1.936 1.936 0 0 1-1.935-1.936v-.17c-2.847-.2-5.794-.328-8.883-.385v.555a1.936 1.936 0 0 1-1.936 1.936h-3.26a1.936 1.936 0 0 1-1.978-2.007v-.513c-3.09 0-6.064.185-8.883.385v.17a1.936 1.936 0 0 1-1.936 1.937h-3.217a1.935 1.935 0 0 1-1.865-1.424C5.26 36.706 2.954 38.115 2.77 38.585a1.01 1.01 0 0 1-1.039.996Z"/></svg>