<svg xmlns="http://www.w3.org/2000/svg" width="61" height="62" fill="none"><path fill="#38BCEA" d="M11.628 61.937a3.887 3.887 0 0 1-3.288-1.88C5.18 55.09 4.767 51.29 4.297 46.89a88.392 88.392 0 0 0-.47-3.786 19.929 19.929 0 0 1-3.16-8.911c-.355-3.73-.355-6.178-.355-6.278 0-7.9 5.921-14.32 13.195-14.32a1.04 1.04 0 1 1 0 2.078c-6.135 0-11.117 5.495-11.117 12.242 0 0 0 2.463.341 6.078a17.651 17.651 0 0 0 2.847 8.129c.087.121.141.264.157.412.228 1.424.37 2.847.512 4.1.456 4.27.826 7.715 3.73 12.285a1.765 1.765 0 0 0 2.036.84 2.106 2.106 0 0 0 1.423-2.136v-5.28a7.205 7.205 0 0 1 7.181-7.758 7.201 7.201 0 0 1 7.182 7.757v5.281a2.107 2.107 0 0 0 1.424 2.136 1.779 1.779 0 0 0 2.035-.84 21.436 21.436 0 0 0 3.032-7.317 1.039 1.039 0 0 1 1.224-.811 1.053 1.053 0 0 1 .812 1.238 23.132 23.132 0 0 1-3.331 8 3.829 3.829 0 0 1-4.356 1.722 4.27 4.27 0 0 1-2.947-4.128v-5.28a5.138 5.138 0 0 0-9.998-2.127c-.222.685-.298 1.41-.222 2.126v5.281a4.27 4.27 0 0 1-2.947 4.128 4.141 4.141 0 0 1-.897.186ZM59.059 44.627a1.068 1.068 0 0 1-.897-.498L33.835 3.459c-.194-.31-.5-.534-.855-.626a1.31 1.31 0 0 0-1.053.157 1.323 1.323 0 0 0-.626.854 1.326 1.326 0 0 0 .156 1.054L52.64 40.3a1.039 1.039 0 0 1-1.78 1.067L29.664 5.951a3.46 3.46 0 0 1 1.195-4.74 3.445 3.445 0 0 1 4.755 1.181l24.327 40.67a1.025 1.025 0 0 1-.882 1.565Z"/><path fill="#38BCEA" d="M35.828 48.67a.998.998 0 0 1-.826-.428 1.025 1.025 0 0 1-.128-1.024c3.103-7.303-4.812-12.613-5.153-12.812a1.01 1.01 0 0 1-.47-.811 1.067 1.067 0 0 1 .384-.868c2.121-1.694 2.164-3.274 1.936-4.171-7.644 3.003-14.59-3.915-14.89-4.27a1.025 1.025 0 0 1 .485-1.737c4.683-1.182 6.548-2.392 7.288-3.146-5.139-.94-8.157-8.043-8.285-8.37a1.026 1.026 0 0 1 .214-1.125.982.982 0 0 1 1.096-.242c.27.085 6.676 2.335 13.736-3.018a1.053 1.053 0 0 1 1.424.2 1.039 1.039 0 0 1-.2 1.423 17.935 17.935 0 0 1-13.437 3.83c1.281 2.206 3.73 5.508 6.833 5.28a1.04 1.04 0 0 1 1.053.726 2.347 2.347 0 0 1-.299 1.808c-.882 1.58-3.245 2.947-7.046 4.086 2.334 1.779 7.217 4.612 12.043 2.177a1.011 1.011 0 0 1 1.31.328 5.409 5.409 0 0 1-1.04 6.875c2.206 1.822 7.004 6.591 5.48 12.812 2.99-.74 9.196-2.99 11.388-9.168a1.04 1.04 0 0 1 1.324-.626 1.053 1.053 0 0 1 .627 1.338c-3.388 9.438-14.335 10.79-14.805 10.847l-.042.086ZM8.411 25.823a1.025 1.025 0 0 1-1.024-1.04v-1.167a1.039 1.039 0 1 1 2.064 0v1.168a1.024 1.024 0 0 1-1.04 1.039ZM8.411 31.702a1.025 1.025 0 0 1-1.024-1.04v-1.167a1.039 1.039 0 1 1 2.064 0v1.168a1.024 1.024 0 0 1-1.04 1.039ZM11.941 28.172h-1.167a1.04 1.04 0 0 1-.433-2.024c.14-.044.287-.058.433-.04h1.167a1.037 1.037 0 0 1 1.16 1.032 1.04 1.04 0 0 1-1.16 1.032ZM6.063 28.172H4.895a1.04 1.04 0 0 1-.812-1.81 1.038 1.038 0 0 1 .812-.254h1.168a1.037 1.037 0 0 1 1.16 1.032 1.04 1.04 0 0 1-1.16 1.032Z"/></svg>