<svg xmlns="http://www.w3.org/2000/svg" width="28" height="39" fill="none"><path fill="#20A0CD" d="M13.698 24.5C6.242 24.5.176 30.567.176 38.023c0 .364.294.658.657.658h25.73a.657.657 0 0 0 .658-.658c0-7.456-6.066-13.523-13.523-13.523ZM1.508 37.365c.343-6.426 5.68-11.55 12.19-11.55s11.848 5.124 12.19 11.55H1.508ZM13.475 23.298c4.313 0 7.823-3.51 7.823-7.825 0-1.525-.44-2.995-1.267-4.264v-9.7a.657.657 0 0 0-.658-.658H7.578a.657.657 0 0 0-.657.657v9.696a7.79 7.79 0 0 0-1.27 4.269c0 4.315 3.51 7.825 7.824 7.825ZM8.235 2.166h10.48v8.745H8.235V2.166Zm-.399 10.06h11.28c.568.984.866 2.097.866 3.247 0 3.59-2.919 6.51-6.507 6.51a6.517 6.517 0 0 1-6.508-6.51c0-1.148.3-2.261.87-3.247Z"/><path fill="#20A0CD" d="M15.767 5.954h-1.634V4.317a.657.657 0 1 0-1.315 0v1.637h-1.634a.657.657 0 1 0 0 1.315h1.634v1.634a.657.657 0 1 0 1.315 0V7.27h1.634a.657.657 0 1 0 0-1.315Z"/></svg>