<svg xmlns="http://www.w3.org/2000/svg" width="77" height="80" fill="none"><path fill="#38BCEA" d="M56.564 28.11a1.283 1.283 0 0 1-.65-.172 15.793 15.793 0 0 1-5.03-4.79 1.25 1.25 0 0 1 .444-1.712 1.215 1.215 0 0 1 1.711.428 13.45 13.45 0 0 0 4.193 3.935 1.25 1.25 0 0 1 .41 1.712 1.198 1.198 0 0 1-1.078.599Z"/><path fill="#38BCEA" d="M49.018 68.15A3.935 3.935 0 0 1 47 67.567a4.398 4.398 0 0 1-1.711-5.031l1.454-5.133a5.835 5.835 0 0 0-.273-4.176 4.33 4.33 0 0 0-2.721-2.378 4.397 4.397 0 0 0-3.576.565 5.903 5.903 0 0 0-2.464 3.422l-1.455 5.133a4.38 4.38 0 0 1-4.158 3.32 3.901 3.901 0 0 1-3.781-2.995c-3.936-14.065 1.266-32.323 1.488-33.093 2.225-7.7 9.634-12.337 16.53-10.266a11.874 11.874 0 0 1 6.057 4.107 11.977 11.977 0 0 1 7.324-.257 12.336 12.336 0 0 1 7.7 6.707 15.4 15.4 0 0 1 .77 10.866c-.223.77-5.527 18.993-16.342 28.798a4.09 4.09 0 0 1-2.823.992ZM42.55 48.231c.62 0 1.236.086 1.831.257a6.844 6.844 0 0 1 4.278 3.73 8.282 8.282 0 0 1 .445 5.92l-1.472 5.134a1.9 1.9 0 0 0 .685 2.224 1.437 1.437 0 0 0 1.71-.274C60.295 55.881 65.6 37.846 65.65 37.59c.907-3.01.681-6.248-.633-9.103a9.77 9.77 0 0 0-6.143-5.373 9.582 9.582 0 0 0-6.553.496 1.266 1.266 0 0 1-1.54-.445 9.566 9.566 0 0 0-5.185-3.97c-5.578-1.608-11.601 2.276-13.45 8.659 0 .17-5.133 18.343-1.488 31.724a1.455 1.455 0 0 0 1.386 1.18 1.916 1.916 0 0 0 1.711-1.523l1.454-5.133a8.385 8.385 0 0 1 3.525-4.79 7.15 7.15 0 0 1 3.867-1.079h-.05Z"/><path fill="#38BCEA" d="M41.079 79.272a20.38 20.38 0 0 1-18.72-11.567 10.147 10.147 0 0 0-9.188-6.177H6.686a1.25 1.25 0 1 1 0-2.482h6.485a12.61 12.61 0 0 1 11.464 7.632 18.445 18.445 0 0 0 32.888 0 12.594 12.594 0 0 1 11.464-7.632h6.485a1.25 1.25 0 1 1 0 2.482h-6.485a10.268 10.268 0 0 0-9.205 6.177 20.345 20.345 0 0 1-18.703 11.567ZM11.51 36.254a5.561 5.561 0 0 1-5.44-4.449L.097 2.22A1.215 1.215 0 0 1 1.108.732a1.232 1.232 0 0 1 1.47.975l5.973 29.568a3.063 3.063 0 0 0 3.593 2.395 3.114 3.114 0 0 0 1.95-1.317 3.08 3.08 0 0 0 .445-2.293l-3.764-18.394a1.25 1.25 0 0 1 2.447-.48l3.73 18.43a5.51 5.51 0 0 1-.821 4.157 5.595 5.595 0 0 1-3.525 2.379 5.933 5.933 0 0 1-1.095.102Z"/><path fill="#38BCEA" d="M25.166 59.714a1.467 1.467 0 0 1-.462 0L11.152 54.22a1.248 1.248 0 0 1-.65-1.711l2.891-6.143-2.258-11.14a1.249 1.249 0 0 1 .975-1.47 1.233 1.233 0 0 1 1.471.975l2.345 11.532c.053.267.017.544-.103.788l-2.498 5.321 12.303 4.997a1.25 1.25 0 0 1 .701 1.71 1.267 1.267 0 0 1-1.163.634ZM39.675 34.184a1.232 1.232 0 0 1-1.164-.787l-1.386-3.576a1.266 1.266 0 0 1 0-.873l1.232-3.422-2.566-5.561a1.25 1.25 0 1 1 2.258-1.044l2.79 6.006c.119.302.119.639 0 .94l-1.25 3.526 1.232 3.063a1.284 1.284 0 0 1-1.146 1.728Z"/><path fill="#38BCEA" d="M42.722 27.682a1.42 1.42 0 0 1-.376 0l-3.046-.959a1.266 1.266 0 0 1-.822-1.574 1.233 1.233 0 0 1 1.575-.804l3.046.958a1.25 1.25 0 0 1-.377 2.43v-.051Z"/></svg>