<svg xmlns="http://www.w3.org/2000/svg" width="60" height="77" fill="none"><path fill="#38BCEA" d="M36.834 10.123h-.332a19.56 19.56 0 0 1-7.628-3.971 1.281 1.281 0 1 1 1.75-1.873 16.848 16.848 0 0 0 6.543 3.377 1.277 1.277 0 0 1-.333 2.502v-.035Z"/><path fill="#38BCEA" d="M39.878 45.675H19.566A12.598 12.598 0 0 1 7.16 34.897l-1.96-13.752a19.368 19.368 0 0 1 .91-9.465A16.114 16.114 0 0 1 20.931.64a14.784 14.784 0 0 1 8.747 2.922A14.732 14.732 0 0 1 38.426.64a16.114 16.114 0 0 1 14.907 11.11 19.368 19.368 0 0 1 .91 9.465l-1.96 13.752a12.597 12.597 0 0 1-12.405 10.708ZM20.983 3.195a13.612 13.612 0 0 0-12.44 9.377 16.849 16.849 0 0 0-.752 8.224l1.942 13.751a10.043 10.043 0 0 0 9.885 8.573h20.26a10.043 10.043 0 0 0 9.886-8.573l1.942-13.751a16.848 16.848 0 0 0-.753-8.224 13.612 13.612 0 0 0-12.457-9.377 12.247 12.247 0 0 0-7.925 2.974 1.312 1.312 0 0 1-1.645 0 12.247 12.247 0 0 0-7.943-2.974Z"/><path fill="#38BCEA" d="M29.748 76.188a1.277 1.277 0 0 1-1.242-.98 1.295 1.295 0 0 1 .945-1.54l1.137-.262-11.023-.42a1.278 1.278 0 0 1-1.224-1.155 1.312 1.312 0 0 1 .98-1.365l11.267-2.729-11.005-.455a1.295 1.295 0 0 1-1.225-1.154 1.277 1.277 0 0 1 .98-1.365l11.232-2.66-11.005-.454a1.277 1.277 0 0 1-.245-2.502l11.25-2.66-11.005-.455a1.277 1.277 0 0 1-.245-2.52l11.233-2.658-11.005-.455a1.26 1.26 0 0 1-.228-2.502l20.26-4.654a1.278 1.278 0 1 1 .578 2.484l-11.232 2.66 11.005.455a1.26 1.26 0 0 1 1.224 1.137 1.277 1.277 0 0 1-.98 1.364l-11.232 2.66 11.005.455a1.278 1.278 0 0 1 .228 2.52l-11.233 2.658 11.005.438a1.312 1.312 0 0 1 1.225 1.155 1.277 1.277 0 0 1-.98 1.364l-11.25 2.66 11.005.455a1.278 1.278 0 0 1 .245 2.52l-11.232 2.641 11.005.455a1.277 1.277 0 0 1 1.207 1.155 1.26 1.26 0 0 1-.962 1.364l-10.148 2.31a.91.91 0 0 1-.315.035ZM48.364 68.577a1.26 1.26 0 0 1-1.05-.542 1.277 1.277 0 0 1 .315-1.75l9.413-6.456a1.284 1.284 0 0 1 1.452 2.117l-9.413 6.439a1.242 1.242 0 0 1-.717.192ZM48.47 54.388a1.278 1.278 0 0 1-.718-2.327l9.413-6.456a1.278 1.278 0 1 1 1.434 2.1l-9.395 6.455a1.26 1.26 0 0 1-.735.228ZM11.15 68.577c-.257 0-.508-.08-.717-.227l-9.396-6.456a1.26 1.26 0 0 1-.332-1.75 1.277 1.277 0 0 1 1.75-.332l9.412 6.456a1.295 1.295 0 0 1 .333 1.75 1.313 1.313 0 0 1-1.05.56ZM11.045 54.388a1.208 1.208 0 0 1-.717-.228L.915 47.704a1.277 1.277 0 0 1-.332-1.75 1.26 1.26 0 0 1 1.75-.332l9.412 6.456a1.277 1.277 0 0 1-.717 2.327l.017-.017Z"/></svg>