<svg xmlns="http://www.w3.org/2000/svg" width="16" height="16" fill="none"><path fill="#2E3A59" d="M14.24 15.865H1.604a1.4 1.4 0 0 1-1.399-1.4V1.832A1.4 1.4 0 0 1 1.605.433h12.633c.773 0 1.399.626 1.4 1.398v12.635c0 .772-.626 1.398-1.399 1.4ZM3.35 6.15l-.332 1.227h1.097l-.71 2.889a3.46 3.46 0 0 0-.085.695 1.239 1.239 0 0 0 1.391 1.36 2.204 2.204 0 0 0 1.873-1.212l-.28 1.116h1.554l.886-3.554c.223-.91.662-1.373 1.303-1.373a.778.778 0 0 1 .834.845c.002.169-.023.337-.073.498l-.453 1.636a2.5 2.5 0 0 0-.098.697 1.27 1.27 0 0 0 1.417 1.343c.883 0 1.5-.6 1.833-1.785l-.606-.235c-.237.677-.49 1.007-.773 1.007-.207 0-.316-.144-.316-.416.006-.142.028-.284.065-.422l.446-1.594c.101-.328.153-.67.154-1.013a1.63 1.63 0 0 0-1.591-1.81c-.9.122-1.676.69-2.065 1.511l.31-1.388H6.737l-.336 1.202h1.11l-.686 2.735a1.793 1.793 0 0 1-1.567 1.187.435.435 0 0 1-.079-.006c-.208-.049-.33-.129-.33-.388.006-.214.037-.427.095-.633L5.99 6.149H3.35Zm2.013-2.713a.935.935 0 1 0 0 1.87v-.02a.949.949 0 0 0 .67-.27.915.915 0 0 0 .272-.658.934.934 0 0 0-.942-.922Z"/></svg>