<svg xmlns="http://www.w3.org/2000/svg" width="17" height="16" fill="none"><path fill="#2E3A59" d="M8.611 15.907c-2.11 0-2.36-.011-3.184-.048a5.65 5.65 0 0 1-1.874-.386 3.964 3.964 0 0 1-2.257-2.257 5.657 5.657 0 0 1-.36-1.877c-.048-.822-.048-1.091-.048-3.186 0-2.117.011-2.364.048-3.184.013-.64.135-1.274.36-1.874A3.956 3.956 0 0 1 3.556.837a5.606 5.606 0 0 1 1.873-.36C6.25.43 6.52.43 8.611.43c2.128 0 2.373.011 3.183.047a5.641 5.641 0 0 1 1.88.36 3.96 3.96 0 0 1 2.259 2.258c.23.609.351 1.253.361 1.903.048.822.048 1.09.048 3.184 0 2.094-.012 2.368-.048 3.181a5.665 5.665 0 0 1-.36 1.878 3.968 3.968 0 0 1-2.26 2.259c-.6.225-1.235.346-1.876.36-.82.047-1.088.047-3.187.047Zm-.03-14.118c-2.098 0-2.316.01-3.136.047-.489.006-.973.096-1.432.267a2.565 2.565 0 0 0-1.475 1.469 4.303 4.303 0 0 0-.267 1.447c-.045.832-.045 1.05-.045 3.134 0 2.06.008 2.31.045 3.135.008.49.098.974.267 1.433a2.567 2.567 0 0 0 1.475 1.469c.459.17.943.261 1.432.266.831.049 1.05.049 3.137.049 2.105 0 2.323-.01 3.135-.049.49-.005.974-.096 1.433-.266a2.574 2.574 0 0 0 1.468-1.467c.17-.464.26-.954.266-1.448h.01c.037-.82.037-1.04.037-3.136s-.01-2.317-.047-3.136a4.34 4.34 0 0 0-.266-1.431 2.574 2.574 0 0 0-1.468-1.47 4.242 4.242 0 0 0-1.433-.266c-.83-.047-1.047-.047-3.135-.047Zm.03 10.327a3.967 3.967 0 1 1-.005-7.933 3.967 3.967 0 0 1 .005 7.933Zm0-6.543a2.574 2.574 0 1 0 0 5.148 2.574 2.574 0 0 0 0-5.148Zm4.119-.612a.925.925 0 1 1 .007-1.85.925.925 0 0 1-.007 1.85Z"/></svg>