<svg xmlns="http://www.w3.org/2000/svg" width="59" height="66" fill="none"><path fill="#38BCEA" d="M36.674 9.48h-.285a19.33 19.33 0 0 1-7.624-3.962 1.094 1.094 0 1 1 1.5-1.591 17.378 17.378 0 0 0 6.68 3.407 1.096 1.096 0 0 1-.286 2.146h.015Z"/><path fill="#38BCEA" d="M53.018 25.223h-.075a1.095 1.095 0 0 1-1.006-1.17c.255-3.513.255-5.779.255-5.809 0-8.69-6.213-15.773-13.837-15.773a12.561 12.561 0 0 0-8.134 3.002 1.126 1.126 0 0 1-1.41 0 12.561 12.561 0 0 0-8.134-3.002c-7.624 0-13.837 7.084-13.837 15.773 0 0 0 2.161.24 5.523a1.095 1.095 0 1 1-2.176.15c-.256-3.437-.256-5.583-.256-5.673C4.648 8.34 11.838.235 20.677.235c3.195.009 6.3 1.063 8.839 3.002a14.632 14.632 0 0 1 8.84-3.002c8.839 0 16.027 8.044 16.027 18.01 0 .09 0 2.355-.27 6.002a1.11 1.11 0 0 1-1.095.976ZM40.742 65.743a4.729 4.729 0 0 1-1.2-.165 5.102 5.102 0 0 1-3.573-5.043v-6.708c0-4.112-2.896-7.504-6.453-7.504-3.557 0-6.453 3.332-6.453 7.504v6.709a5.118 5.118 0 0 1-3.557 5.042 4.503 4.503 0 0 1-5.118-2.131c-5.312-8.6-7.698-19.87-8.749-27.794a1.036 1.036 0 0 1 .255-.855 1.094 1.094 0 0 1 .826-.376h45.593a1.096 1.096 0 0 1 .825.376 1.035 1.035 0 0 1 .315.93c-1.05 7.939-3.437 19.195-8.75 27.794a4.576 4.576 0 0 1-3.961 2.221Zm-11.226-21.55c4.773 0 8.644 4.322 8.644 9.634v6.709a2.866 2.866 0 0 0 1.966 3.001 2.296 2.296 0 0 0 2.657-1.155c4.847-7.85 7.158-18.01 8.269-25.709H7.98c1.11 7.624 3.422 17.86 8.27 25.709a2.296 2.296 0 0 0 2.656 1.155 2.867 2.867 0 0 0 1.966-3.002v-6.708c0-5.282 3.872-9.605 8.644-9.605v-.03Z"/><path fill="#38BCEA" d="M41.702 30.896a1.096 1.096 0 0 1-.99-.63 12.366 12.366 0 0 0-22.392 0 1.11 1.11 0 0 1-1.186.615c-4.577-.826-12.246-2.822-12.246-7.024 0-5.283 12.396-8.044 24.628-8.044 12.23 0 24.627 2.761 24.627 8.044 0 4.202-7.669 6.198-12.246 7.024l-.195.015ZM29.516 20.96a14.617 14.617 0 0 1 12.786 7.608c6.648-1.29 9.65-3.346 9.65-4.712 0-2.446-8.54-5.853-22.436-5.853-13.897 0-22.512 3.407-22.512 5.853 0 1.38 3.002 3.422 9.65 4.712a14.618 14.618 0 0 1 12.862-7.608Z"/><path fill="#38BCEA" d="M42.947 36.629H15.934a1.08 1.08 0 0 1-1.081-1.081 14.573 14.573 0 0 1 29.145 0 1.08 1.08 0 0 1-1.05 1.08Zm-25.843-2.177h24.688a12.396 12.396 0 0 0-24.688 0ZM53.738 30.895a1.154 1.154 0 0 1-.9-.45 1.095 1.095 0 0 1 .254-1.5l3.617-2.597a1.095 1.095 0 0 1 1.276 1.771l-3.617 2.596a1.125 1.125 0 0 1-.63.18ZM57.34 34.858a1.08 1.08 0 0 1-.6-.18l-1.381-.916a1.095 1.095 0 0 1 1.215-1.816l1.366.915a1.08 1.08 0 0 1-.6 1.997ZM5.294 30.895a1.125 1.125 0 0 1-.63-.21L1.046 28.09a1.095 1.095 0 0 1 1.275-1.77l3.617 2.596a1.096 1.096 0 0 1 .255 1.5 1.156 1.156 0 0 1-.9.48ZM1.692 34.858a1.08 1.08 0 0 1-.916-.48 1.096 1.096 0 0 1 .3-1.501l1.381-.916a1.096 1.096 0 0 1 1.216 1.816l-1.38.916a1.08 1.08 0 0 1-.601.165Z"/></svg>