<svg xmlns="http://www.w3.org/2000/svg" width="30" height="40" fill="none"><path fill="#20A0CD" d="M29.254 19.708h-4.405l-1.706-7.087a.63.63 0 0 0-.612-.482H8.617L6.374.766A.631.631 0 0 0 5.64.268l-4.207.786a.63.63 0 0 0-.504.736l4.29 22.976a.63.63 0 0 0 .62.514.622.622 0 0 0 .188-.032h12.067v8.984H9.995a.63.63 0 0 0-.63.63v4.188c0 .348.282.63.63.63H27.45a.63.63 0 0 0 .63-.63v-4.188a.63.63 0 0 0-.63-.63h-8.096v-8.984h9.9a.63.63 0 0 0 .63-.63v-4.28a.63.63 0 0 0-.63-.63ZM26.82 38.42H10.625v-2.928H26.82v2.928ZM22.035 13.4l1.518 6.308H10.11l-1.244-6.309h13.169ZM2.284 2.176l2.974-.555 3.656 18.535-2.695 3.096L2.284 2.177Zm26.34 21.81H7.25l2.628-3.02h18.745v3.02Z"/></svg>