<svg xmlns="http://www.w3.org/2000/svg" width="58" height="52" fill="none"><path fill="#1A3444" d="M34.895 36.17a.663.663 0 0 1-.44-.151.453.453 0 0 1-.179-.364V15.992l-9.538 19.827a.605.605 0 0 1-.585.323h-.163a.605.605 0 0 1-.586-.323l-9.472-19.315v19.152a.491.491 0 0 1-.18.378.673.673 0 0 1-.878 0 .493.493 0 0 1-.18-.378V13.834a.368.368 0 0 1 .034-.136.554.554 0 0 1 .585-.404.604.604 0 0 1 .586.324L24.054 34.39l9.994-20.745c.13-.269.338-.347.68-.347h.167a.694.694 0 0 1 .453.162.48.48 0 0 1 .196.379v21.306h1.693v-21.31a.496.496 0 0 1 .178-.378l.18-.162h.26a.64.64 0 0 1 .44.162.5.5 0 0 1 .178.378v21.822a.453.453 0 0 1-.178.364.55.55 0 0 1-.1.068.81.81 0 0 1-.34.081 2.07 2.07 0 0 1-.325 0h-2.635Z"/><path fill="#1A3444" d="M44.757 13.206a.67.67 0 0 1 .44.151.455.455 0 0 1 .178.364.496.496 0 0 1-.179.38.634.634 0 0 1-.439.16h-6.282v20.987a.485.485 0 0 1-.18.392.726.726 0 0 1-.879 0 .486.486 0 0 1-.18-.392V13.772a.475.475 0 0 1 .262-.404.696.696 0 0 1 .453-.162h6.806ZM40.01 36.221a.737.737 0 0 1-.453-.151.443.443 0 0 1-.195-.364V24.104a.478.478 0 0 1 .195-.377.688.688 0 0 1 .453-.162.626.626 0 0 1 .571.33.497.497 0 0 1 .048.21v11.038h4.134a.627.627 0 0 1 .57.33c.031.066.047.137.048.209a.453.453 0 0 1-.178.364.669.669 0 0 1-.44.15l-4.753.025Zm6.477-22.96a10.313 10.313 0 0 1 5.452 1.51c1.651 1 3.013 2.414 3.95 4.102a11.277 11.277 0 0 1 1.465 5.651c0 2.041-.488 4.274-1.465 6-.938 1.687-2.3 3.1-3.951 4.1a10.313 10.313 0 0 1-5.452 1.51.669.669 0 0 1-.44-.152.489.489 0 0 1 0-.755.669.669 0 0 1 .44-.15 9.018 9.018 0 0 0 4.818-1.36 9.772 9.772 0 0 0 3.503-3.72c.856-1.573 1.285-3.631 1.285-5.474a10.56 10.56 0 0 0-1.285-5.126 9.772 9.772 0 0 0-3.5-3.722 9.017 9.017 0 0 0-4.818-1.359.628.628 0 0 1-.44-.166.492.492 0 0 1-.178-.378.451.451 0 0 1 .178-.363.669.669 0 0 1 .432-.148h.006Z"/><path fill="#38BCEA" fill-rule="evenodd" d="M41.786 6.772c.188-.09.367-.2.532-.327 0 0-.194.127-.532.327Zm-14.71-1.7C15.678.402 8.397-2.802 3.595 3.561c-3.99 5.284-4.631 13.596-2.06 24.442 2.31 9.751 7.134 16.346 10.845 19.91 3.624 3.473 8.39 4.681 11.534 2.472 1.534-1.08 2.438-2.076 3.846-4.668a20.694 20.694 0 0 0 1.784-4.669s-4.806 10.024-10.298 7.828C13.753 46.68 7.534 39.599 4.967 26.218 3.17 16.856 4.282 5.071 9.637 3.7c5.355-1.372 12.495 2.34 17.439 3.707 4.943 1.366 8.926 1.786 11.26.961a20.693 20.693 0 0 0 3.45-1.595c-1.394.699-5.681 1.999-14.71-1.7Z" clip-rule="evenodd"/><path fill="#38BCEA" fill-rule="evenodd" d="M49.321 3.02C45.9.684 42.821.782 40.67.953c-4.028.318-7.277 2.196-7.277 2.196s6.995-2.026 12.078.413c4.494 2.15 4.806 5.905 4.806 5.905s.995.217 2.505 1.132c1.439.876 1.779 1.329 1.779 1.329S53.448 5.81 49.32 3.02Z" clip-rule="evenodd"/></svg>