<svg xmlns="http://www.w3.org/2000/svg" width="67" height="62" fill="none"><path fill="#38BCEA" d="M39.937 14.892a.865.865 0 0 1-.284 0 17.312 17.312 0 0 1-6.895-3.582 1.09 1.09 0 1 1 1.493-1.582 15.55 15.55 0 0 0 5.97 2.985 1.09 1.09 0 0 1-.284 2.134v.045Z"/><path fill="#38BCEA" d="M43.593 61.38a4.122 4.122 0 0 1-1.12-.149 4.686 4.686 0 0 1-3.267-4.641v-5.97a6.193 6.193 0 0 0-5.702-6.566c-3.134 0-5.7 2.985-5.7 6.566v5.97a4.686 4.686 0 0 1-3.269 4.641 4.149 4.149 0 0 1-4.701-1.955c-8.716-14.103-8.775-35.638-8.775-36.549 0-8.954 6.507-16.237 14.506-16.237 2.864.005 5.649.937 7.94 2.656a13.297 13.297 0 0 1 7.94-2.656c7.998 0 14.505 7.283 14.505 16.237 0 .91 0 22.386-8.775 36.55a4.209 4.209 0 0 1-3.582 2.104ZM33.504 41.816c4.343 0 7.88 3.925 7.88 8.746v5.97a2.463 2.463 0 0 0 1.687 2.536 1.94 1.94 0 0 0 2.253-1c8.388-13.566 8.447-35.19 8.447-35.4 0-7.76-5.536-14.058-12.327-14.058-2.657.011-5.223.97-7.238 2.701a1.12 1.12 0 0 1-1.403 0 11.179 11.179 0 0 0-7.238-2.701c-6.79 0-12.328 6.298-12.328 14.059 0 .208 0 21.834 8.448 35.4a1.954 1.954 0 0 0 2.253 1 2.462 2.462 0 0 0 1.702-2.538v-5.97c0-4.865 3.521-8.79 7.864-8.79v.045Z"/><path fill="#38BCEA" d="M33.504 34.025C21.954 34.025.12 32.533.12 26.98c0-.896 0-3.612 11.94-5.537a1.06 1.06 0 0 1 1.238.895 1.09 1.09 0 0 1-.895 1.254c-8.343 1.343-10.044 2.985-10.044 3.388 0 1.656 11.029 4.865 31.221 4.865S64.8 28.637 64.8 26.981c0-.373-1.701-2.045-10.044-3.388a1.09 1.09 0 1 1 .358-2.15C66.98 23.37 66.98 26.086 66.98 26.982c-.074 5.566-21.923 7.044-33.475 7.044Z"/><path fill="#38BCEA" d="M11.745 48.785a2.506 2.506 0 0 1-1.85-.672c-.97-.97-1.717-3.06 2.984-10.089a1.09 1.09 0 1 1 1.82 1.194c-3.506 5.283-3.432 7.149-3.223 7.358 1.164 1.179 11.238-4.343 25.52-18.625C51.28 13.668 56.787 3.594 55.623 2.43c-.284-.284-3.239-.12-11.432 6.133a1.09 1.09 0 0 1-1.328-1.716C54.338-1.928 56.458.192 57.159.878c3.94 3.94-10.447 20.416-18.625 28.595-7.268 7.223-20.969 19.312-26.789 19.312Z"/><path fill="#38BCEA" d="M55.233 48.844c-1.596 0-4.298-.97-9.163-4.313a133.274 133.274 0 0 1-17.55-15.043 135.552 135.552 0 0 1-15.044-17.536C8.133 4.176 8.864 1.922 9.894.893c.701-.701 2.82-2.82 14.297 5.97a1.09 1.09 0 1 1-1.328 1.716C14.685 2.326 11.73 2.147 11.431 2.445c-.298.299-.268 2.328 3.836 8.283A132.206 132.206 0 0 0 30.07 27.965C44.354 42.248 54.413 47.77 55.577 46.591c.209-.21.283-2.075-3.209-7.358a1.09 1.09 0 1 1 1.806-1.194c4.656 7.03 3.91 9.119 2.985 10.089a2.447 2.447 0 0 1-1.925.716Z"/></svg>