<svg xmlns="http://www.w3.org/2000/svg" width="60" height="61" fill="none"><path fill="#fff" d="M30.657 10.4a1.33 1.33 0 0 1-.54.032 17.21 17.21 0 0 1-6.903-3.588 1.039 1.039 0 0 1 1.423-1.509 15.658 15.658 0 0 0 6.05 3.061 1.024 1.024 0 0 1 .726 1.267 1.053 1.053 0 0 1-.756.736Zm9.083 50.393a1.563 1.563 0 0 1-.626.016 1.01 1.01 0 0 1-.726-.982c0-.086-.2-8.64-8.541-18.861a1.032 1.032 0 1 1 1.594-1.31 39.546 39.546 0 0 1 4.283 5.965c2.26 3.861 8.213 4.453 8.936.038.801-4.887-.176-8.448-.906-10.302a7.488 7.488 0 0 1-.455-3.858c.185-1.21.356-2.462.498-3.7a1.041 1.041 0 0 1 1.154-.922 1.04 1.04 0 0 1 .91 1.163 80.23 80.23 0 0 1-.512 3.773 5.177 5.177 0 0 0 .341 2.775c1.424 3.53 3.715 13.11-5.352 25.837a1.025 1.025 0 0 1-.597.368Z"/><path fill="#fff" d="M8.424 60.809a1.025 1.025 0 0 1-.84-.441C-1.498 47.642.794 38.062 2.217 34.53c.355-.88.468-1.837.328-2.775a98.78 98.78 0 0 1-1.153-13.452c.014-8.983 6.52-16.27 14.548-16.27 1.618.007 3.21.308 4.704.877a9.349 9.349 0 0 0 6.563 0 13.396 13.396 0 0 1 4.704-.878 13.68 13.68 0 0 1 9.153 3.63A1.048 1.048 0 0 1 39.641 7.2a11.231 11.231 0 0 0-15.075-.355 1.01 1.01 0 0 1-1.324 0 11.388 11.388 0 0 0-7.317-2.734C9.05 4.111 3.47 10.49 3.47 18.346c.073 4.4.448 8.79 1.124 13.14a7.345 7.345 0 0 1-.455 3.857c-1.035 2.6-2.594 8.84 1.34 17.425.708 1.544 2.945 1.21 3.528-.386a1.04 1.04 0 1 1 1.95.712 22.917 22.917 0 0 0-1.508 6.718 1.039 1.039 0 0 1-.726.983.81.81 0 0 1-.3.014Z"/><path fill="#fff" d="M19.897 48.012a.015.015 0 0 0-.014-.015 1.024 1.024 0 0 1-.513-.156l-8.817-5.247c-.214-.127-.438-.259-.563-.474a1.04 1.04 0 0 1 .934-1.56c.247.009.467.142.679.268l8.82 5.262a1.04 1.04 0 0 1-.512 1.936.014.014 0 0 1-.014-.014Zm5.31-7.459a1.053 1.053 0 0 1-.726-.314l-5.182-5.153a1.04 1.04 0 0 1 0-1.423l10.335-11.915a97.906 97.906 0 0 1 11.145-11.003l8.328-6.975a1.053 1.053 0 0 1 1.423.07l5.153 5.154a1.04 1.04 0 0 1 0 1.423l-6.96 8.342a98.016 98.016 0 0 1-10.919 11.203l-11.9 10.334a1.054 1.054 0 0 1-.697.257Zm-1.984-8.271a2.874 2.874 0 0 0 4.063 4.044l9.095-7.93a97.444 97.444 0 0 0 10.733-10.947l4.631-5.532a2.948 2.948 0 0 0-4.152-4.153l-5.518 4.618a95.204 95.204 0 0 0-10.947 10.747l-7.905 9.153Z"/></svg>