<svg xmlns="http://www.w3.org/2000/svg" width="80" height="47" fill="none"><path fill="#38BCEA" d="M33.305 21.95c-4.158 0-7.563-3.935-7.563-8.778V3.607A3.011 3.011 0 0 1 28.754.596h9.12a3.012 3.012 0 0 1 3.011 3.011v9.565c0 4.843-3.405 8.778-7.58 8.778ZM28.754 3.128a.496.496 0 0 0-.514.513v9.566c0 3.422 2.276 6.28 5.134 6.28 2.857 0 5.133-2.807 5.133-6.28v-9.6a.497.497 0 0 0-.513-.513l-9.24.034Z"/><path fill="#38BCEA" d="M45.95 21.95c-4.175 0-7.563-3.935-7.563-8.778V3.607A3.012 3.012 0 0 1 41.38.596h9.138a3.012 3.012 0 0 1 2.994 3.011v9.565c0 4.843-3.388 8.778-7.563 8.778ZM41.38 3.128a.496.496 0 0 0-.496.513v9.566c0 3.422 2.276 6.28 5.133 6.28 2.858 0 5.134-2.807 5.134-6.28v-9.6a.496.496 0 0 0-.497-.513l-9.274.034Z"/><path fill="#38BCEA" d="M57.928 22.413c-3.799 0-6.844-3.594-6.844-7.991V5.866a2.823 2.823 0 0 1 2.823-2.806h8.196a2.823 2.823 0 0 1 2.823 2.806v8.556c-.068 4.397-3.182 7.99-6.998 7.99ZM53.838 5.49a.342.342 0 0 0-.325.325v8.555c0 3.029 1.985 5.493 4.415 5.493 2.43 0 4.432-2.464 4.432-5.493V5.815a.342.342 0 0 0-.325-.325h-8.197ZM21.327 22.413c-3.815 0-6.844-3.594-6.844-7.991V5.866a2.823 2.823 0 0 1 2.823-2.806h8.18a2.823 2.823 0 0 1 2.823 2.806v8.556c-.069 4.397-3.166 7.99-6.982 7.99ZM17.237 5.49a.325.325 0 0 0-.324.325v8.555c0 3.029 1.985 5.493 4.414 5.493 2.43 0 4.415-2.464 4.415-5.493V5.815a.325.325 0 0 0-.325-.325h-8.18ZM37.874 46.95h-9.12a3.012 3.012 0 0 1-3.012-3.012v-9.565c0-4.842 3.422-8.778 7.563-8.778s7.58 3.936 7.58 8.778v9.565a3.012 3.012 0 0 1-3.011 3.012Zm-4.569-18.822c-2.789 0-5.133 2.806-5.133 6.28v9.565a.498.498 0 0 0 .513.513h9.12a.495.495 0 0 0 .514-.513v-9.566c.068-3.507-2.208-6.313-5.014-6.313v.034Z"/><path fill="#38BCEA" d="M50.519 46.95H41.38a3.012 3.012 0 0 1-2.994-3.012v-9.565c0-4.842 3.422-8.778 7.563-8.778 4.14 0 7.563 3.936 7.563 8.778v9.565a3.012 3.012 0 0 1-2.994 3.012Zm-4.57-18.822c-2.788 0-5.133 2.806-5.133 6.28v9.565a.497.497 0 0 0 .497.513h9.137a.495.495 0 0 0 .496-.513v-9.566c.069-3.507-2.207-6.313-4.996-6.313v.034Z"/><path fill="#38BCEA" d="M62.034 44.537h-8.196a2.824 2.824 0 0 1-2.823-2.823v-8.556c0-4.397 3.114-7.99 6.844-7.99 3.73 0 6.93 3.593 6.93 7.99v8.556a2.823 2.823 0 0 1-2.755 2.823Zm-4.106-16.905c-2.43 0-4.415 2.463-4.415 5.492v8.556a.342.342 0 0 0 .325.342h8.196a.342.342 0 0 0 .325-.342v-8.556c0-3.029-1.985-5.493-4.431-5.493ZM25.417 44.537h-8.18a2.824 2.824 0 0 1-2.823-2.823v-8.556c0-4.397 3.097-7.99 6.845-7.99 3.747 0 6.844 3.593 6.844 7.99v8.556a2.824 2.824 0 0 1-2.686 2.823Zm-4.09-16.905c-2.43 0-4.415 2.463-4.415 5.492v8.556a.325.325 0 0 0 .325.342h8.18a.326.326 0 0 0 .325-.342v-8.556c0-3.029-1.985-5.493-4.415-5.493Z"/><path fill="#38BCEA" d="M63.609 42.381a1.25 1.25 0 0 1-.257-2.464 16.546 16.546 0 0 0 0-32.426 1.249 1.249 0 0 1 .496-2.446 19.045 19.045 0 0 1 0 37.319l-.24.017Z"/><path fill="#38BCEA" d="M63.608 35.93a1.283 1.283 0 0 1-1.026-.53 1.232 1.232 0 0 1 .29-1.711 12.405 12.405 0 0 0 4.518-6.126 5.561 5.561 0 0 1 0-7.683 12.406 12.406 0 0 0-4.517-6.126 1.231 1.231 0 0 1-.291-1.711 1.249 1.249 0 0 1 1.711-.29 14.784 14.784 0 0 1 5.698 8.298 1.25 1.25 0 0 1-.582 1.386 2.96 2.96 0 0 0 0 4.603 1.249 1.249 0 0 1 .582 1.386 14.784 14.784 0 0 1-5.664 8.35c-.22.12-.469.174-.718.154Z"/><path fill="#38BCEA" d="M70.025 28.675a5.048 5.048 0 1 1 4.193-4.962 4.637 4.637 0 0 1-4.193 4.962Zm0-7.443c-.907 0-1.71 1.13-1.71 2.48 0 1.353.77 2.465 1.71 2.465.941 0 1.712-1.13 1.712-2.464 0-1.335-.788-2.481-1.712-2.481ZM15.663 42.381h-.256a19.045 19.045 0 0 1 0-37.32 1.25 1.25 0 0 1 1.471.976 1.23 1.23 0 0 1-.975 1.472 16.547 16.547 0 0 0 0 32.425 1.25 1.25 0 0 1-.24 2.464v-.017Z"/><path fill="#38BCEA" d="M15.663 35.93a1.3 1.3 0 0 1-.736-.24 14.87 14.87 0 0 1-5.698-8.298 1.25 1.25 0 0 1 .582-1.386 2.96 2.96 0 0 0 0-4.603 1.249 1.249 0 0 1-.582-1.386 14.87 14.87 0 0 1 5.698-8.299 1.249 1.249 0 1 1 1.455 2.02 12.371 12.371 0 0 0-4.5 6.125 5.613 5.613 0 0 1 0 7.683 12.371 12.371 0 0 0 4.5 6.126 1.232 1.232 0 0 1 .29 1.71 1.249 1.249 0 0 1-1.009.548Z"/><path fill="#38BCEA" d="M9.23 28.675a5.048 5.048 0 1 1 4.175-4.962 4.62 4.62 0 0 1-4.175 4.962Zm0-7.443c-.907 0-1.712 1.13-1.712 2.48 0 1.353.77 2.465 1.712 2.465.94 0 1.71-1.13 1.71-2.464 0-1.335-.804-2.481-1.71-2.481Z"/></svg>